<svg width="146" height="146" viewBox="0 0 146 146" fill="none" xmlns="http://www.w3.org/2000/svg">
<g clip-path="url(#clip0_6469_38820)">
<path d="M12.4395 53.4298L16.6269 45.4951C18.1496 42.5752 21.1316 41.4326 23.8598 42.8926C25.9536 44.0352 26.8418 46.0664 26.5246 47.9707L26.6515 48.0342C28.1742 46.5108 30.6486 46.003 32.9961 47.209C36.105 48.8594 36.6126 52.3507 35.0264 55.2706L30.9024 63.2687L12.4395 53.4298ZM17.3248 51.6524L21.7026 54.0011L23.606 50.4463C24.4943 48.7959 23.8598 47.3995 22.6543 46.7647C21.2585 46.003 20.053 46.5743 19.2917 47.9073L17.3248 51.6524ZM24.8115 55.588L29.6969 58.1905L31.7906 54.255C32.552 52.8585 32.2982 51.335 30.8389 50.5098C29.4431 49.7481 27.857 50.002 26.8418 51.8428L24.8115 55.588Z" fill="white"/>
<path d="M41.87 46.34L39.4066 49.3771L23.2327 36.1463L25.6962 33.1091L41.87 46.34Z" fill="white"/>
<path d="M48.2226 24.4415L44.8599 26.5997C43.3372 24.251 40.9263 23.9971 39.0229 25.2667C36.2947 27.044 36.485 29.964 38.7691 33.4552L39.5939 34.7247C41.9414 38.2794 44.5427 39.4855 47.2709 37.7082C49.2378 36.3751 49.6184 33.8361 47.9054 31.297L43.9717 33.8995L42.1317 31.1066L49.3646 26.3458L55.5824 35.8673L53.4887 37.2638L51.7756 35.6134C51.6487 37.8351 50.4432 39.7394 48.6033 40.9455C44.3524 43.7385 39.9746 42.5324 35.914 36.3117C31.8534 30.1544 32.6782 25.5206 37.3733 22.4102C40.8628 20.0616 45.4944 20.252 48.2226 24.4415Z" fill="white"/>
<path d="M67.1313 18.4537L67.1947 18.8345L63.3245 19.6597L63.261 19.4058C62.8804 17.6919 61.6114 16.8033 59.8984 17.1841C58.0584 17.565 57.2336 18.7076 57.4874 19.9771C58.3757 24.1031 67.7657 19.5328 69.3519 27.023C70.367 31.7203 67.7657 34.1325 63.5148 35.0846C59.7715 35.9098 56.0281 34.4499 55.0764 30.2604C55.013 30.0065 55.013 29.7526 54.9495 29.6256L58.8832 28.8004C58.8832 28.8639 58.9467 29.1178 58.9467 29.3082C59.3908 31.276 60.8501 32.2916 62.9438 31.8473C65.2279 31.3395 65.7989 29.943 65.5451 28.8004C64.53 23.9762 55.2033 28.9908 53.5537 21.1832C52.7289 17.3111 55.5206 14.772 59.137 14.0103C62.8804 13.1216 66.243 14.2642 67.1313 18.4537Z" fill="white"/>
<path d="M76.3942 25.627L75.4425 33.6886L71.5723 33.2443L74.0467 12.4873L81.4699 13.376C85.7843 13.8838 87.6877 16.8037 87.2436 20.3584C86.7994 24.2305 83.8809 26.5157 79.9472 26.0714L76.3942 25.627ZM77.4728 16.4229L76.7749 22.2628L79.9472 22.6436C81.8506 22.8975 82.9926 21.8184 83.2464 19.9141C83.4368 18.2002 82.5485 16.9942 80.6451 16.8037L77.4728 16.4229Z" fill="white"/>
<path d="M103.103 31.6573C100.058 38.3859 95.6801 40.1632 90.7313 37.9415C85.8459 35.7198 84.2597 31.213 87.2417 24.4844C90.2872 17.7559 94.665 15.9785 99.6138 18.2002C104.563 20.4219 106.149 24.9288 103.103 31.6573ZM91.3023 25.4366L90.6678 26.8331C88.9548 30.6417 89.3355 33.5616 92.1271 34.8312C94.9822 36.1007 97.3932 34.4503 99.1062 30.6417L99.7407 29.2452C101.454 25.4366 101.073 22.5166 98.2814 21.2471C95.4898 19.9775 93.0154 21.628 91.3023 25.4366Z" fill="white"/>
<path d="M117.083 45.8757C111.817 51.0173 107.058 51.0808 103.251 47.2087C99.4447 43.3366 99.635 38.5758 104.965 33.4342C110.294 28.2926 114.989 28.2291 118.796 32.1012C122.539 35.9733 122.412 40.734 117.083 45.8757ZM108.327 35.7828L107.249 36.862C104.267 39.7819 103.505 42.6384 105.726 44.8601C107.883 47.0817 110.802 46.447 113.784 43.527L114.862 42.4479C117.844 39.528 118.606 36.6715 116.385 34.4498C114.164 32.2281 111.373 32.8629 108.327 35.7828Z" fill="white"/>
<path d="M114.208 62.7609L122.012 52.0967C122.329 51.7159 123.408 50.4463 123.408 50.4463L123.281 50.3829C123.281 50.3829 122.202 50.9541 121.695 51.1446L111.099 55.9688L109.703 52.8585L128.737 44.2256L130.133 47.336L122.329 58.0001C122.012 58.5079 120.933 59.6505 120.933 59.6505L121.06 59.714C121.06 59.714 122.329 59.0792 122.646 58.9522L133.242 54.128L134.701 57.3018L115.667 65.9347L114.208 62.7609Z" fill="white"/>
</g>
<path fill-rule="evenodd" clip-rule="evenodd" d="M73 4.69286C35.275 4.69286 4.69286 35.275 4.69286 73C4.69286 110.725 35.275 141.307 73 141.307C110.725 141.307 141.307 110.725 141.307 73C141.307 35.275 110.725 4.69286 73 4.69286ZM0 73C0 32.6832 32.6832 0 73 0C113.317 0 146 32.6832 146 73C146 113.317 113.317 146 73 146C32.6832 146 0 113.317 0 73Z" fill="white"/>
<g clip-path="url(#clip1_6469_38820)">
<path d="M23.5832 105.21L33.4555 97.1636L38.5579 103.505L36.917 104.898L33.3203 100.409L30.9953 102.278L34.1184 106.077L32.4775 107.47L29.3543 103.671L26.7387 105.773L30.4472 110.357L28.8062 111.75L23.5832 105.21Z" fill="white"/>
<path d="M45.1112 113.477L45.0262 113.693L43.0331 112.195L43.127 112.083C43.7755 111.192 43.6953 110.26 42.8105 109.606C41.9257 108.952 41.0004 109.032 40.5309 109.594C38.9523 111.711 44.8651 114.228 41.9718 117.919C40.2054 120.261 38.0107 120.033 35.906 118.441C34.0246 117.038 33.2029 114.709 34.7815 112.592C34.8754 112.479 34.9693 112.367 35.0633 112.254L37.0563 113.752C37.0563 113.752 36.9624 113.864 36.8685 113.977C36.1262 114.979 36.2152 116.015 37.3235 116.858C38.4317 117.702 39.3392 117.415 39.8087 116.853C41.6691 114.398 35.5684 112.107 38.5467 108.2C40.0403 106.298 42.3378 106.518 44.1163 107.929C45.8949 109.341 46.6898 111.359 45.1112 113.477Z" fill="white"/>
<path d="M56.5129 117.191L53.6123 115.98L49.4877 125.827L47.3335 124.865L51.4582 115.018L48.5576 113.807L49.4254 111.855L57.4835 115.23L56.5129 117.191Z" fill="white"/>
<path d="M57.6974 128.562L59.7132 115.871L63.8119 116.562C66.9586 117.022 68.5177 119.495 67.828 123.519C67.165 127.852 64.84 129.721 61.7961 129.253L57.6974 128.562ZM61.7953 118.405L60.4515 126.865L61.9264 127.155C63.7099 127.419 64.9574 126.269 65.3516 123.627L65.4771 122.678C65.8892 120.243 64.9509 118.968 63.1586 118.6L61.7953 118.405Z" fill="white"/>
<path d="M74.4064 130.152L71.8183 130.166L71.8013 127.559L74.3894 127.546L74.4064 130.152Z" fill="white"/>
<path d="M90.7751 116.955C91.7797 120.207 89.0921 123.88 88.8233 125.572L93.1551 124.157L93.7444 126.192L86.784 128.355L86.6545 128.054C85.4937 124.19 89.5713 121.022 88.5578 117.667C88.4016 117.055 87.9369 116.469 87.0205 116.652C86.113 116.939 86.0903 117.88 86.385 118.897L86.6529 119.604L84.4356 120.317C84.4356 120.317 84.3061 120.015 84.1677 119.61C83.3193 116.97 84.634 115.397 86.5518 114.815C88.3668 114.242 90.0652 114.721 90.7751 116.955Z" fill="white"/>
<path d="M101.713 115.286C104.179 119.872 103.62 121.798 101.541 122.916C99.4618 124.033 97.6427 123.355 95.1769 118.769C92.7111 114.183 93.2705 112.257 95.3494 111.139C97.3255 110.031 99.2384 110.596 101.713 115.286ZM96.894 117.057L97.5149 118.255C98.8684 120.746 99.5743 121.729 100.67 121.217C101.765 120.706 101.238 119.395 99.9961 116.999L99.3752 115.8C98.0217 113.309 97.3158 112.326 96.2204 112.838C95.1251 113.349 95.6432 114.556 96.894 117.057Z" fill="white"/>
<path d="M111.692 113.279L113.718 111.54L114.879 113.005L108.991 117.997L107.829 116.532L110.051 114.672L104.967 108.538L102.745 110.398L101.815 109.226C102.575 108.43 103.582 106.883 103.98 105.493L104.852 104.792L111.692 113.279Z" fill="white"/>
</g>
<path fill-rule="evenodd" clip-rule="evenodd" d="M12.4941 75.8203C12.4941 75.4741 12.7748 75.1934 13.1211 75.1934H13.2807C13.627 75.1934 13.9077 75.4741 13.9077 75.8203C13.9077 76.1666 13.627 76.4473 13.2807 76.4473H13.1211C12.7748 76.4473 12.4941 76.1666 12.4941 75.8203ZM15.8456 75.8203C15.8456 75.4741 16.1263 75.1934 16.4726 75.1934H16.7918C17.1381 75.1934 17.4188 75.4741 17.4188 75.8203C17.4188 76.1666 17.1381 76.4473 16.7918 76.4473H16.4726C16.1263 76.4473 15.8456 76.1666 15.8456 75.8203ZM19.3567 75.8203C19.3567 75.4741 19.6374 75.1934 19.9837 75.1934H20.3029C20.6492 75.1934 20.9299 75.4741 20.9299 75.8203C20.9299 76.1666 20.6492 76.4473 20.3029 76.4473H19.9837C19.6374 76.4473 19.3567 76.1666 19.3567 75.8203ZM22.8678 75.8203C22.8678 75.4741 23.1485 75.1934 23.4948 75.1934H23.814C24.1603 75.1934 24.441 75.4741 24.441 75.8203C24.441 76.1666 24.1603 76.4473 23.814 76.4473H23.4948C23.1485 76.4473 22.8678 76.1666 22.8678 75.8203ZM26.3789 75.8203C26.3789 75.4741 26.6596 75.1934 27.0059 75.1934H27.3251C27.6714 75.1934 27.9521 75.4741 27.9521 75.8203C27.9521 76.1666 27.6714 76.4473 27.3251 76.4473H27.0059C26.6596 76.4473 26.3789 76.1666 26.3789 75.8203ZM29.89 75.8203C29.89 75.4741 30.1707 75.1934 30.517 75.1934H30.6766C31.0229 75.1934 31.3036 75.4741 31.3036 75.8203C31.3036 76.1666 31.0229 76.4473 30.6766 76.4473H30.517C30.1707 76.4473 29.89 76.1666 29.89 75.8203Z" fill="white"/>
<path fill-rule="evenodd" clip-rule="evenodd" d="M115.949 75.8203C115.949 75.4741 116.23 75.1934 116.576 75.1934H116.736C117.082 75.1934 117.363 75.4741 117.363 75.8203C117.363 76.1666 117.082 76.4473 116.736 76.4473H116.576C116.23 76.4473 115.949 76.1666 115.949 75.8203ZM119.301 75.8203C119.301 75.4741 119.581 75.1934 119.928 75.1934H120.247C120.593 75.1934 120.874 75.4741 120.874 75.8203C120.874 76.1666 120.593 76.4473 120.247 76.4473H119.928C119.581 76.4473 119.301 76.1666 119.301 75.8203ZM122.812 75.8203C122.812 75.4741 123.093 75.1934 123.439 75.1934H123.758C124.104 75.1934 124.385 75.4741 124.385 75.8203C124.385 76.1666 124.104 76.4473 123.758 76.4473H123.439C123.093 76.4473 122.812 76.1666 122.812 75.8203ZM126.323 75.8203C126.323 75.4741 126.604 75.1934 126.95 75.1934H127.269C127.615 75.1934 127.896 75.4741 127.896 75.8203C127.896 76.1666 127.615 76.4473 127.269 76.4473H126.95C126.604 76.4473 126.323 76.1666 126.323 75.8203ZM129.834 75.8203C129.834 75.4741 130.115 75.1934 130.461 75.1934H130.78C131.126 75.1934 131.407 75.4741 131.407 75.8203C131.407 76.1666 131.126 76.4473 130.78 76.4473H130.461C130.115 76.4473 129.834 76.1666 129.834 75.8203ZM133.345 75.8203C133.345 75.4741 133.626 75.1934 133.972 75.1934H134.132C134.478 75.1934 134.759 75.4741 134.759 75.8203C134.759 76.1666 134.478 76.4473 134.132 76.4473H133.972C133.626 76.4473 133.345 76.1666 133.345 75.8203Z" fill="white"/>
<g clip-path="url(#clip2_6469_38820)">
<path d="M12.4395 53.4298L16.6269 45.4951C18.1496 42.5752 21.1316 41.4326 23.8598 42.8926C25.9536 44.0352 26.8418 46.0664 26.5246 47.9707L26.6515 48.0342C28.1742 46.5108 30.6486 46.003 32.9961 47.209C36.105 48.8594 36.6126 52.3507 35.0264 55.2706L30.9024 63.2687L12.4395 53.4298ZM17.3248 51.6524L21.7026 54.0011L23.606 50.4463C24.4943 48.7959 23.8598 47.3995 22.6543 46.7647C21.2585 46.003 20.053 46.5743 19.2917 47.9073L17.3248 51.6524ZM24.8115 55.588L29.6969 58.1905L31.7906 54.255C32.552 52.8585 32.2982 51.335 30.8389 50.5098C29.4431 49.7481 27.857 50.002 26.8418 51.8428L24.8115 55.588Z" fill="white"/>
<path d="M41.87 46.34L39.4066 49.3771L23.2327 36.1463L25.6962 33.1091L41.87 46.34Z" fill="white"/>
<path d="M48.2226 24.4415L44.8599 26.5997C43.3372 24.251 40.9263 23.9971 39.0229 25.2667C36.2947 27.044 36.485 29.964 38.7691 33.4552L39.5939 34.7247C41.9414 38.2794 44.5427 39.4855 47.2709 37.7082C49.2378 36.3751 49.6184 33.8361 47.9054 31.297L43.9717 33.8995L42.1317 31.1066L49.3646 26.3458L55.5824 35.8673L53.4887 37.2638L51.7756 35.6134C51.6487 37.8351 50.4432 39.7394 48.6033 40.9455C44.3524 43.7385 39.9746 42.5324 35.914 36.3117C31.8534 30.1544 32.6782 25.5206 37.3733 22.4102C40.8628 20.0616 45.4944 20.252 48.2226 24.4415Z" fill="white"/>
<path d="M67.1313 18.4537L67.1947 18.8345L63.3245 19.6597L63.261 19.4058C62.8804 17.6919 61.6114 16.8033 59.8984 17.1841C58.0584 17.565 57.2336 18.7076 57.4874 19.9771C58.3757 24.1031 67.7657 19.5328 69.3519 27.023C70.367 31.7203 67.7657 34.1325 63.5148 35.0846C59.7715 35.9098 56.0281 34.4499 55.0764 30.2604C55.013 30.0065 55.013 29.7526 54.9495 29.6256L58.8832 28.8004C58.8832 28.8639 58.9467 29.1178 58.9467 29.3082C59.3908 31.276 60.8501 32.2916 62.9438 31.8473C65.2279 31.3395 65.7989 29.943 65.5451 28.8004C64.53 23.9762 55.2033 28.9908 53.5537 21.1832C52.7289 17.3111 55.5206 14.772 59.137 14.0103C62.8804 13.1216 66.243 14.2642 67.1313 18.4537Z" fill="white"/>
<path d="M76.3942 25.627L75.4425 33.6886L71.5723 33.2443L74.0467 12.4873L81.4699 13.376C85.7843 13.8838 87.6877 16.8037 87.2436 20.3584C86.7994 24.2305 83.8809 26.5157 79.9472 26.0714L76.3942 25.627ZM77.4728 16.4229L76.7749 22.2628L79.9472 22.6436C81.8506 22.8975 82.9926 21.8184 83.2464 19.9141C83.4368 18.2002 82.5485 16.9942 80.6451 16.8037L77.4728 16.4229Z" fill="white"/>
<path d="M103.103 31.6573C100.058 38.3859 95.6801 40.1632 90.7313 37.9415C85.8459 35.7198 84.2597 31.213 87.2417 24.4844C90.2872 17.7559 94.665 15.9785 99.6138 18.2002C104.563 20.4219 106.149 24.9288 103.103 31.6573ZM91.3023 25.4366L90.6678 26.8331C88.9548 30.6417 89.3355 33.5616 92.1271 34.8312C94.9822 36.1007 97.3932 34.4503 99.1062 30.6417L99.7407 29.2452C101.454 25.4366 101.073 22.5166 98.2814 21.2471C95.4898 19.9775 93.0154 21.628 91.3023 25.4366Z" fill="white"/>
<path d="M117.083 45.8757C111.817 51.0173 107.058 51.0808 103.251 47.2087C99.4447 43.3366 99.635 38.5758 104.965 33.4342C110.294 28.2926 114.989 28.2291 118.796 32.1012C122.539 35.9733 122.412 40.734 117.083 45.8757ZM108.327 35.7828L107.249 36.862C104.267 39.7819 103.505 42.6384 105.726 44.8601C107.883 47.0817 110.802 46.447 113.784 43.527L114.862 42.4479C117.844 39.528 118.606 36.6715 116.385 34.4498C114.164 32.2281 111.373 32.8629 108.327 35.7828Z" fill="white"/>
<path d="M114.208 62.7609L122.012 52.0967C122.329 51.7159 123.408 50.4463 123.408 50.4463L123.281 50.3829C123.281 50.3829 122.202 50.9541 121.695 51.1446L111.099 55.9688L109.703 52.8585L128.737 44.2256L130.133 47.336L122.329 58.0001C122.012 58.5079 120.933 59.6505 120.933 59.6505L121.06 59.714C121.06 59.714 122.329 59.0792 122.646 58.9522L133.242 54.128L134.701 57.3018L115.667 65.9347L114.208 62.7609Z" fill="white"/>
</g>
<path fill-rule="evenodd" clip-rule="evenodd" d="M73 4.69286C35.275 4.69286 4.69286 35.275 4.69286 73C4.69286 110.725 35.275 141.307 73 141.307C110.725 141.307 141.307 110.725 141.307 73C141.307 35.275 110.725 4.69286 73 4.69286ZM0 73C0 32.6832 32.6832 0 73 0C113.317 0 146 32.6832 146 73C146 113.317 113.317 146 73 146C32.6832 146 0 113.317 0 73Z" fill="white"/>
<g clip-path="url(#clip3_6469_38820)">
<path d="M23.5832 105.21L33.4555 97.1636L38.5579 103.505L36.917 104.898L33.3203 100.409L30.9953 102.278L34.1184 106.077L32.4775 107.47L29.3543 103.671L26.7387 105.773L30.4472 110.357L28.8062 111.75L23.5832 105.21Z" fill="white"/>
<path d="M45.1112 113.477L45.0262 113.693L43.0331 112.195L43.127 112.083C43.7755 111.192 43.6953 110.26 42.8105 109.606C41.9257 108.952 41.0004 109.032 40.5309 109.594C38.9523 111.711 44.8651 114.228 41.9718 117.919C40.2054 120.261 38.0107 120.033 35.906 118.441C34.0246 117.038 33.2029 114.709 34.7815 112.592C34.8754 112.479 34.9693 112.367 35.0633 112.254L37.0563 113.752C37.0563 113.752 36.9624 113.864 36.8685 113.977C36.1262 114.979 36.2152 116.015 37.3235 116.858C38.4317 117.702 39.3392 117.415 39.8087 116.853C41.6691 114.398 35.5684 112.107 38.5467 108.2C40.0403 106.298 42.3378 106.518 44.1163 107.929C45.8949 109.341 46.6898 111.359 45.1112 113.477Z" fill="white"/>
<path d="M56.5129 117.191L53.6123 115.98L49.4877 125.827L47.3335 124.865L51.4582 115.018L48.5576 113.807L49.4254 111.855L57.4835 115.23L56.5129 117.191Z" fill="white"/>
<path d="M57.6974 128.562L59.7132 115.871L63.8119 116.562C66.9586 117.022 68.5177 119.495 67.828 123.519C67.165 127.852 64.84 129.721 61.7961 129.253L57.6974 128.562ZM61.7953 118.405L60.4515 126.865L61.9264 127.155C63.7099 127.419 64.9574 126.269 65.3516 123.627L65.4771 122.678C65.8892 120.243 64.9509 118.968 63.1586 118.6L61.7953 118.405Z" fill="white"/>
<path d="M74.4064 130.152L71.8183 130.166L71.8013 127.559L74.3894 127.546L74.4064 130.152Z" fill="white"/>
<path d="M90.7751 116.955C91.7797 120.207 89.0921 123.88 88.8233 125.572L93.1551 124.157L93.7444 126.192L86.784 128.355L86.6545 128.054C85.4937 124.19 89.5713 121.022 88.5578 117.667C88.4016 117.055 87.9369 116.469 87.0205 116.652C86.113 116.939 86.0903 117.88 86.385 118.897L86.6529 119.604L84.4356 120.317C84.4356 120.317 84.3061 120.015 84.1677 119.61C83.3193 116.97 84.634 115.397 86.5518 114.815C88.3668 114.242 90.0652 114.721 90.7751 116.955Z" fill="white"/>
<path d="M101.713 115.286C104.179 119.872 103.62 121.798 101.541 122.916C99.4618 124.033 97.6427 123.355 95.1769 118.769C92.7111 114.183 93.2705 112.257 95.3494 111.139C97.3255 110.031 99.2384 110.596 101.713 115.286ZM96.894 117.057L97.5149 118.255C98.8684 120.746 99.5743 121.729 100.67 121.217C101.765 120.706 101.238 119.395 99.9961 116.999L99.3752 115.8C98.0217 113.309 97.3158 112.326 96.2204 112.838C95.1251 113.349 95.6432 114.556 96.894 117.057Z" fill="white"/>
<path d="M111.692 113.279L113.718 111.54L114.879 113.005L108.991 117.997L107.829 116.532L110.051 114.672L104.967 108.538L102.745 110.398L101.815 109.226C102.575 108.43 103.582 106.883 103.98 105.493L104.852 104.792L111.692 113.279Z" fill="white"/>
</g>
<path fill-rule="evenodd" clip-rule="evenodd" d="M12.4941 75.8203C12.4941 75.4741 12.7748 75.1934 13.1211 75.1934H13.2807C13.627 75.1934 13.9077 75.4741 13.9077 75.8203C13.9077 76.1666 13.627 76.4473 13.2807 76.4473H13.1211C12.7748 76.4473 12.4941 76.1666 12.4941 75.8203ZM15.8456 75.8203C15.8456 75.4741 16.1263 75.1934 16.4726 75.1934H16.7918C17.1381 75.1934 17.4188 75.4741 17.4188 75.8203C17.4188 76.1666 17.1381 76.4473 16.7918 76.4473H16.4726C16.1263 76.4473 15.8456 76.1666 15.8456 75.8203ZM19.3567 75.8203C19.3567 75.4741 19.6374 75.1934 19.9837 75.1934H20.3029C20.6492 75.1934 20.9299 75.4741 20.9299 75.8203C20.9299 76.1666 20.6492 76.4473 20.3029 76.4473H19.9837C19.6374 76.4473 19.3567 76.1666 19.3567 75.8203ZM22.8678 75.8203C22.8678 75.4741 23.1485 75.1934 23.4948 75.1934H23.814C24.1603 75.1934 24.441 75.4741 24.441 75.8203C24.441 76.1666 24.1603 76.4473 23.814 76.4473H23.4948C23.1485 76.4473 22.8678 76.1666 22.8678 75.8203ZM26.3789 75.8203C26.3789 75.4741 26.6596 75.1934 27.0059 75.1934H27.3251C27.6714 75.1934 27.9521 75.4741 27.9521 75.8203C27.9521 76.1666 27.6714 76.4473 27.3251 76.4473H27.0059C26.6596 76.4473 26.3789 76.1666 26.3789 75.8203ZM29.89 75.8203C29.89 75.4741 30.1707 75.1934 30.517 75.1934H30.6766C31.0229 75.1934 31.3036 75.4741 31.3036 75.8203C31.3036 76.1666 31.0229 76.4473 30.6766 76.4473H30.517C30.1707 76.4473 29.89 76.1666 29.89 75.8203Z" fill="white"/>
<path fill-rule="evenodd" clip-rule="evenodd" d="M115.949 75.8203C115.949 75.4741 116.23 75.1934 116.576 75.1934H116.736C117.082 75.1934 117.363 75.4741 117.363 75.8203C117.363 76.1666 117.082 76.4473 116.736 76.4473H116.576C116.23 76.4473 115.949 76.1666 115.949 75.8203ZM119.301 75.8203C119.301 75.4741 119.581 75.1934 119.928 75.1934H120.247C120.593 75.1934 120.874 75.4741 120.874 75.8203C120.874 76.1666 120.593 76.4473 120.247 76.4473H119.928C119.581 76.4473 119.301 76.1666 119.301 75.8203ZM122.812 75.8203C122.812 75.4741 123.093 75.1934 123.439 75.1934H123.758C124.104 75.1934 124.385 75.4741 124.385 75.8203C124.385 76.1666 124.104 76.4473 123.758 76.4473H123.439C123.093 76.4473 122.812 76.1666 122.812 75.8203ZM126.323 75.8203C126.323 75.4741 126.604 75.1934 126.95 75.1934H127.269C127.615 75.1934 127.896 75.4741 127.896 75.8203C127.896 76.1666 127.615 76.4473 127.269 76.4473H126.95C126.604 76.4473 126.323 76.1666 126.323 75.8203ZM129.834 75.8203C129.834 75.4741 130.115 75.1934 130.461 75.1934H130.78C131.126 75.1934 131.407 75.4741 131.407 75.8203C131.407 76.1666 131.126 76.4473 130.78 76.4473H130.461C130.115 76.4473 129.834 76.1666 129.834 75.8203ZM133.345 75.8203C133.345 75.4741 133.626 75.1934 133.972 75.1934H134.132C134.478 75.1934 134.759 75.4741 134.759 75.8203C134.759 76.1666 134.478 76.4473 134.132 76.4473H133.972C133.626 76.4473 133.345 76.1666 133.345 75.8203Z" fill="white"/>
<path d="M100.854 82.4966C96.8922 93.7994 86.0561 101.939 73.264 101.939C57.103 101.939 44.064 88.948 44.064 72.9993C44.064 57.0507 57.103 44.06 73.264 44.06C87.3566 44.06 99.0753 53.9384 101.844 67.0423H106.627C103.793 51.3093 89.9339 39.3672 73.264 39.3672C54.5454 39.3672 39.3711 54.4248 39.3711 72.9993C39.3711 91.5739 54.5454 106.631 73.264 106.631C88.6587 106.631 101.656 96.4465 105.787 82.4966H100.854Z" fill="white"/>
<path fill-rule="evenodd" clip-rule="evenodd" d="M90.6276 72.2451H53.5684C53.5684 74.5442 54.073 76.8208 55.0533 78.9449C56.0337 81.0689 57.4707 82.9989 59.2821 84.6246C61.0936 86.2503 63.2442 87.5399 65.611 88.4197C67.9779 89.2995 70.5146 89.7524 73.0765 89.7524C75.6383 89.7524 78.175 89.2995 80.5419 88.4197C82.9087 87.5399 85.0593 86.2503 86.8708 84.6246C88.6822 82.9989 90.1192 81.0689 91.0996 78.9449C91.2306 78.6611 91.3531 78.3745 91.467 78.0856H96.6729C97.3144 78.0856 103.355 78.4101 106.295 78.5723V72.2451H90.6276Z" fill="white"/>
<path d="M81.1082 65.9051C80.625 66.5278 80.1577 67.1428 79.6587 67.7889C78.9458 67.2829 78.3993 66.6757 78.0112 65.9284C77.3063 64.574 77.2746 63.1495 77.7419 61.7328C78.0112 60.931 78.4152 60.1604 78.827 59.4209C79.2151 58.7281 79.627 58.0508 79.7458 57.2491C79.9042 56.1748 79.5636 55.2874 78.7874 54.5402C78.7003 54.4623 78.6053 54.3923 78.4785 54.2911C79.0171 53.6528 79.532 53.0534 80.0626 52.4229C81.219 53.3803 81.9873 54.5246 82.1933 55.9802C82.4388 57.6928 81.8685 59.1951 80.9497 60.6041C80.4745 61.328 80.1022 62.0908 79.9597 62.9549C79.7696 64.0836 80.1022 65.0255 80.9814 65.7728C81.021 65.8039 81.0527 65.8428 81.1082 65.9051Z" fill="white"/>
<path d="M67.2488 65.9051C66.7656 66.5278 66.2983 67.1428 65.7993 67.7889C65.0865 67.2829 64.54 66.6757 64.1518 65.9284C63.4469 64.574 63.4152 63.1495 63.8825 61.7328C64.1518 60.931 64.5558 60.1604 64.9677 59.4209C65.3558 58.7281 65.7676 58.0508 65.8864 57.2491C66.0449 56.1748 65.7043 55.2874 64.9281 54.5402C64.8409 54.4623 64.7459 54.3923 64.6192 54.2911C65.1578 53.6528 65.6726 53.0534 66.2033 52.4229C67.3597 53.3803 68.128 54.5246 68.3339 55.9802C68.5794 57.6928 68.0092 59.1951 67.0904 60.6041C66.6151 61.328 66.2429 62.0908 66.1003 62.9549C65.9102 64.0836 66.2429 65.0255 67.1221 65.7728C67.1617 65.8039 67.1933 65.8428 67.2488 65.9051Z" fill="white"/>
<path d="M71.5371 54.2599C72.0706 53.6372 72.5803 53.0378 73.1138 52.4229C74.1889 53.2869 74.9374 54.33 75.2082 55.6533C75.5745 57.4514 75.0091 59.0472 74.0535 60.5573C73.7589 61.0166 73.4881 61.4992 73.289 61.9974C72.7157 63.4531 72.8271 64.792 74.1889 65.8817C73.6952 66.5123 73.2174 67.135 72.7077 67.7889C71.4415 66.847 70.6691 65.6638 70.5257 64.1303C70.3744 62.4256 70.9 60.8843 71.8397 59.4676C72.3095 58.7514 72.7157 58.0119 72.8271 57.1556C72.9705 55.9724 72.4768 55.0383 71.5371 54.2599Z" fill="white"/>
<path d="M120.37 107.411C119.854 107.991 119.298 108.343 118.703 108.466C118.098 108.581 117.482 108.519 116.857 108.281C116.23 108.024 115.622 107.634 115.033 107.11L116.406 105.567C116.986 106.083 117.506 106.412 117.967 106.554C118.435 106.686 118.828 106.575 119.144 106.219C119.427 105.901 119.508 105.546 119.388 105.154C119.258 104.754 118.971 104.314 118.527 103.835C118.081 103.337 117.531 102.789 116.875 102.188C116.968 102.573 116.969 102.968 116.877 103.372C116.776 103.768 116.58 104.13 116.289 104.457C115.823 104.98 115.296 105.299 114.708 105.413C114.129 105.518 113.527 105.451 112.901 105.212C112.275 104.956 111.672 104.57 111.092 104.054C110.447 103.48 109.995 102.876 109.737 102.244C109.477 101.594 109.396 100.96 109.493 100.343C109.59 99.7257 109.86 99.1692 110.301 98.6737C110.833 98.0753 111.432 97.6948 112.096 97.5321C112.769 97.36 113.546 97.4655 114.429 97.8487C115.319 98.2226 116.358 98.938 117.546 99.995C118.883 101.185 119.835 102.234 120.402 103.141C120.977 104.038 121.24 104.834 121.192 105.528C121.152 106.213 120.878 106.841 120.37 107.411ZM115.328 103.023C115.669 102.64 115.75 102.201 115.57 101.706C115.382 101.202 115.021 100.714 114.488 100.239C113.973 99.7814 113.456 99.4879 112.934 99.3586C112.412 99.2293 111.981 99.3563 111.639 99.7397C111.298 100.123 111.222 100.566 111.411 101.07C111.608 101.563 111.963 102.039 112.478 102.497C113.011 102.971 113.534 103.278 114.047 103.417C114.56 103.538 114.986 103.406 115.328 103.023Z" fill="white"/>
<defs>
<clipPath id="clip0_6469_38820">
<rect width="122.261" height="53.4476" fill="white" transform="translate(12.4395 12.4854)"/>
</clipPath>
<clipPath id="clip1_6469_38820">
<rect width="97.515" height="36.3746" fill="white" transform="translate(22.9688 98.0684) rotate(-4.91504)"/>
</clipPath>
<clipPath id="clip2_6469_38820">
<rect width="122.261" height="53.4476" fill="white" transform="translate(12.4395 12.4854)"/>
</clipPath>
<clipPath id="clip3_6469_38820">
<rect width="97.515" height="36.3746" fill="white" transform="translate(22.9688 98.0684) rotate(-4.91504)"/>
</clipPath>
</defs>
</svg>
