<svg width="12" height="12" viewBox="0 0 12 12" fill="none" xmlns="http://www.w3.org/2000/svg">
<path d="M11.641 9.95294C11.944 10.2559 12.0623 10.6974 11.9514 11.1112C11.8405 11.525 11.5173 11.8482 11.1035 11.9591C10.6897 12.07 10.2482 11.9517 9.94523 11.6488L5.99613 7.69963L2.04702 11.6488C1.57874 12.117 0.819502 12.117 0.351216 11.6488C-0.11707 11.1805 -0.117072 10.4212 0.35121 9.95294L4.30031 6.00382L0.35121 2.05469C0.0482972 1.75175 -0.0699877 1.31021 0.040912 0.896411C0.151812 0.482607 0.475048 0.159401 0.88886 0.0485418C1.30267 -0.0623176 1.74419 0.0560117 2.04711 0.358956L5.99621 4.30808L9.94532 0.358956C10.2473 0.0514517 10.6911 -0.0703355 11.1077 0.0399558C11.5244 0.150247 11.8498 0.475649 11.96 0.892289C12.0703 1.30893 11.9485 1.75271 11.641 2.05469L7.69194 6.00382L11.641 9.95294Z" fill="white"/>
</svg>
