<svg width="149" height="40" viewBox="0 0 149 40" fill="none" xmlns="http://www.w3.org/2000/svg">
<path d="M33.679 33.6437L33.3289 33.3006L32.9789 33.6437C29.5323 37.0225 24.8125 39.1051 19.6053 39.1051C9.05372 39.1051 0.5 30.5514 0.5 19.9998C0.5 9.44821 9.05372 0.894531 19.6053 0.894531C24.8125 0.894531 29.5323 2.97712 32.9789 6.35587L33.3289 6.69899L33.679 6.35587C37.1256 2.97712 41.8454 0.894531 47.0526 0.894531C52.2599 0.894531 56.9797 2.97712 60.4263 6.35587L60.7763 6.69899L61.1263 6.35587C64.573 2.97712 69.2928 0.894531 74.5 0.894531C79.7072 0.894531 84.427 2.97712 87.8737 6.35587L88.2237 6.69899L88.5737 6.35587C92.0203 2.97712 96.7402 0.894531 101.947 0.894531C107.155 0.894531 111.874 2.97712 115.321 6.35587L115.671 6.69899L116.021 6.35587C119.468 2.97712 124.188 0.894531 129.395 0.894531C139.946 0.894531 148.5 9.44821 148.5 19.9998C148.5 30.5514 139.946 39.1051 129.395 39.1051C124.188 39.1051 119.468 37.0225 116.021 33.6437L115.671 33.3006L115.321 33.6437C111.874 37.0225 107.155 39.1051 101.947 39.1051C96.7402 39.1051 92.0203 37.0225 88.5737 33.6437L88.2237 33.3006L87.8737 33.6437C84.427 37.0225 79.7072 39.1051 74.5 39.1051C69.2928 39.1051 64.573 37.0225 61.1263 33.6437L60.7763 33.3006L60.4263 33.6437C56.9797 37.0225 52.2599 39.1051 47.0526 39.1051C41.8454 39.1051 37.1256 37.0225 33.679 33.6437Z" fill="#FF5A10" stroke="#0B0A07"/>
</svg>
